<svg width="404" height="423" viewBox="0 0 404 423" fill="none" xmlns="http://www.w3.org/2000/svg">
<path d="M269.514 0.700592C260.205 1.19559 246.885 8.57559 246.885 21.44C246.885 34.3044 260.295 39.3556 272.344 41.4537C264.171 51.1962 260.818 53.0806 261.656 57.2712C262.494 61.4619 270.037 72.9875 270.656 86.1894C271.275 99.3913 307.117 171.993 313.924 174.091C320.73 176.189 307.309 189.616 354.255 191.124C366.771 191.124 389.479 172.561 389.479 148.374C390.041 95.6506 335.242 85.6437 304.772 26.8231C290.788 -0.176905 273.834 0.464342 269.514 0.700592Z" fill="black"/>
<path d="M403.794 249.016H0.481873V422.514H403.794V249.016Z" fill="#F3F3F3"/>
<path d="M356.336 290.051H35.3288" stroke="white" stroke-width="12.98" stroke-linecap="round" stroke-linejoin="round"/>
<path d="M155.67 295.591L144.291 289.021L136.23 302.994L147.609 309.558L155.67 295.591Z" fill="#FFBC9C"/>
<path d="M330.186 336.125H77.5444" stroke="white" stroke-width="12.98" stroke-linecap="round" stroke-linejoin="round"/>
<path d="M240.428 321.989L228.576 327.687L235.5 342.206L247.358 336.541L240.428 321.989Z" fill="#FFBC9C"/>
<path d="M174.514 198.791C162.983 198.791 146.023 267.894 138.733 288.155C140.257 292.396 148.909 299 153.656 299C162.814 283.655 183.328 250.76 186.973 245.675C189.893 241.625 186.045 198.791 174.514 198.791Z" fill="#313053"/>
<path opacity="0.27" d="M178.862 62.4294C176.893 61.1975 177.821 62.0244 176.269 59.7519L178.862 62.4294Z" fill="black"/>
<path d="M306.758 186.095C316.753 186.095 324.988 183.941 324.988 207.47C324.988 230.999 299.304 250.597 268.823 250.597C238.341 250.597 224.852 249.787 222.073 249.112C221.252 256.891 239.218 310.199 241.148 323.924C239.769 327.592 230.854 332.159 227.085 332.159C223.316 332.159 173.175 250.715 174.48 200.388C174.306 192.513 203.274 190.336 221.578 190.336C239.882 190.336 278.841 192.446 283.768 192.446" fill="#403F63"/>
<path d="M321.501 188.407C322.772 183.17 329.623 70.6306 288.521 72.6388C247.419 74.6469 247.841 174.935 252.521 190.764C271.281 198.706 320.162 193.936 321.501 188.407Z" fill="#FFA5C4"/>
<path d="M274.656 63.7119C275.302 65.2475 278.79 73.4263 279.437 76.7675C280.084 80.1087 297.752 75.8844 296.762 74.2137C290.912 64.3362 289.956 53.9637 289.005 48.7719C288.133 44.0244 270.375 53.5419 274.656 63.7119Z" fill="#FFBC9C"/>
<path d="M279.483 129.887L304.84 132.587C306.567 134.713 305.819 139.742 305.847 142.329C305.96 151.892 305.532 162.579 299.75 170.634C297.5 173.768 293.815 176.822 290.187 176.771C284.506 179.021 275.028 181.614 275.028 181.614L260.645 184.787C260.645 184.787 236.378 189.09 224.397 188.809C220.409 188.708 216.353 188.246 212.371 188.359C210.059 188.421 206.391 189.141 204.231 188.359C203.601 188.128 203.753 186.739 203.905 186.193C204.423 184.286 206.245 182.948 207.921 182.115C211.814 180.18 214.019 181.406 218.013 181.474C221.281 181.53 225.179 179.865 230.849 177.643C237.537 175.022 245.165 171.821 251.982 169.526C259.75 166.911 267.676 164.087 275.258 160.982C276.755 160.369 278.346 159.924 279.916 159.435C279.198 155.347 278.792 151.21 278.701 147.06C278.526 142.56 278.453 137.835 279.111 133.403C279.28 132.261 279.005 130.944 279.483 129.887Z" fill="#FFBC9C"/>
<path d="M311.837 133.226C316.151 121.762 312.399 85.9306 298.393 83.585C278.908 80.6938 273.081 125.964 275.01 131.257C278.458 133.327 297.774 140.173 311.837 133.226Z" fill="#FFB4CD"/>
<path d="M253.815 25.0625C264.286 35.0498 278.079 40.8153 292.543 41.2512C293.217 42.1014 293.585 43.1533 293.589 44.2381C293.583 45.4488 293.144 46.6173 292.35 47.5316C291.557 48.446 290.462 49.0457 289.264 49.2219C288.009 56.8888 283.954 62.8962 277.98 64.7131C268.417 67.6269 257.499 58.655 253.629 44.6712C251.672 37.6062 251.891 30.6256 253.815 25.0625Z" fill="#FEBC9D"/>
<path d="M238.914 189.498C228.789 189.498 192.227 189.206 185.516 189.206L238.914 189.498Z" fill="#FFC88E"/>
<path d="M245.169 189.971C234.482 189.971 197.593 189.099 191.473 189.099C186.726 181.786 164.676 143.266 163.219 140.352" stroke="#9D9D9D" stroke-width="5.79" stroke-linecap="round" stroke-linejoin="round"/>
<path d="M245.625 332.992L253.342 347.741L214.08 368.283L211.892 364.104L231.332 340.479L245.625 332.992Z" fill="black"/>
<path d="M150 305.806L141.422 320.071L103.447 297.239L105.877 293.195L136.174 297.492L150 305.806Z" fill="black"/>
<path d="M359.666 316.348L384.849 291.17L359.666 265.987" stroke="#DFDFDF" stroke-width="12.98" stroke-linecap="round" stroke-linejoin="round"/>
<path d="M46.9219 406.302L21.75 381.125L46.9276 355.947" stroke="#DFDFDF" stroke-width="12.98" stroke-linecap="round" stroke-linejoin="round"/>
<path d="M356.336 380.816H66.9356" stroke="white" stroke-width="12.98" stroke-linecap="round" stroke-linejoin="round"/>
</svg>
